<?xml version="1.0" encoding="UTF-8" standalone="no"?>
<svg
   xmlns:dc="http://purl.org/dc/elements/1.1/"
   xmlns:cc="http://creativecommons.org/ns#"
   xmlns:rdf="http://www.w3.org/1999/02/22-rdf-syntax-ns#"
   xmlns:svg="http://www.w3.org/2000/svg"
   xmlns="http://www.w3.org/2000/svg"
   xmlns:sodipodi="http://sodipodi.sourceforge.net/DTD/sodipodi-0.dtd"
   xmlns:inkscape="http://www.inkscape.org/namespaces/inkscape"
   viewBox="0 0 16 16"
   version="1.1"
   id="svg4"
   sodipodi:docname="icon-scholar.svg"
   inkscape:version="0.92.1 r15371">
  <metadata
     id="metadata10">
    <rdf:RDF>
      <cc:Work
         rdf:about="">
        <dc:format>image/svg+xml</dc:format>
        <dc:type
           rdf:resource="http://purl.org/dc/dcmitype/StillImage" />
      </cc:Work>
    </rdf:RDF>
  </metadata>
  <defs
     id="defs8" />
  <sodipodi:namedview
     pagecolor="#ffffff"
     bordercolor="#666666"
     borderopacity="1"
     objecttolerance="10"
     gridtolerance="10"
     guidetolerance="10"
     inkscape:pageopacity="0"
     inkscape:pageshadow="2"
     inkscape:window-width="1920"
     inkscape:window-height="1136"
     id="namedview6"
     showgrid="false"
     inkscape:lockguides="true"
     inkscape:zoom="22.627417"
     inkscape:cx="19.850382"
     inkscape:cy="7.8143426"
     inkscape:window-x="1920"
     inkscape:window-y="27"
     inkscape:window-maximized="1"
     inkscape:current-layer="svg4" />
  <path
     style="fill:#828282;fill-opacity:0.68235294"
     d="M 5.7265625,1.2402344 1.5839844,5.3320312 h 2.7832031 c 0,10e-8 0.022499,0.8979204 0.3300781,1.4746094 C 5.045082,7.4587713 5.6938281,7.8778461 5.9414062,7.9667969 7.0125953,8.3516578 7.6621094,8.21875 7.6621094,8.21875 c 0,0 -0.154476,0.7821334 -0.078125,1.0878906 0.041588,0.1665435 0.4042969,0.6640625 0.4042968,0.6640625 -1.2649096,0.1628139 -2.2960484,0.2997789 -3.4355468,0.9335939 -1.0942544,0.793245 -1.0507631,1.99942 -1.0390625,2.173828 0.075705,1.128439 0.7518121,1.543502 1.1601562,1.810547 0.3387642,0.221541 0.8254815,0.567719 2.8574219,0.501953 0.5749943,-0.01861 1.896396,-0.123212 2.878906,-0.8125 0.822496,-0.577029 1.372913,-1.669774 1.382813,-2.453125 0.0087,-0.692451 -0.411083,-1.492757 -1.13086,-2.1601562 C 9.9704987,9.323561 9.1939281,8.9978612 9.2832031,8.4707031 9.3544363,8.0500796 9.6830015,7.7843378 10.042969,7.4628906 c 0.414275,-0.3699439 0.869428,-0.78975 1.017578,-1.1894531 0.37642,-1.015571 -0.01367,-2.0839844 -0.01367,-2.0839844 L 12.75,2.4570312 v 0.59375 c 0,2e-7 -0.07889,0.033461 -0.123047,0.074219 C 12.582796,3.1657579 12.5,3.3007812 12.5,3.3007812 V 7.75 c 0,0 0.246699,0.3284087 0.548828,0.3242188 C 13.343391,8.0701352 13.550781,7.75 13.550781,7.75 V 3.3007812 c 0,2e-7 -0.06894,-0.1331165 -0.126953,-0.1757812 C 13.360568,3.078475 13.199219,3.050781 13.199219,3.050781 V 1.9863281 l 0.71875,-0.7285156 z M 7.5488281,2.8378906 C 7.8919004,2.8590194 8.2463325,3.004893 8.546875,3.2675781 8.9763706,3.6429735 9.298227,4.2525129 9.4589844,4.9355469 9.6248602,5.6403281 9.6749143,6.3445132 9.4453125,6.8457031 9.2447868,7.2834238 8.757866,7.5579262 8.3359375,7.6386719 7.7685919,7.7472465 7.1242538,7.4695592 6.6796875,6.8867188 6.4150765,6.5398052 6.2116497,6.0551396 6.0957031,5.5625 5.9403153,4.902281 5.9438956,4.2452501 6.1386719,3.7558594 6.3334108,3.2665629 6.7584628,2.9440133 7.2109375,2.8574219 7.3201464,2.8365224 7.4344707,2.8308477 7.5488281,2.8378906 Z m 1.0228248,7.6925744 c 0,0 0.403857,0.128537 0.8189721,0.479301 0.700028,0.633872 1.065186,0.982966 1.105469,1.466796 0.04028,0.483832 -0.02556,1.273076 -0.886719,1.773438 C 8.6321193,14.817817 6.9158431,14.59287 6.34375,14.28125 6.0306826,14.110722 5.6590405,13.862611 5.4277344,13.574219 5.1964284,13.285827 5.0697794,13.001798 5.109375,12.46875 5.1968273,11.291443 6.3058224,10.835109 7.0625,10.6875 7.8191776,10.539891 8.5716529,10.530465 8.5716529,10.530465 Z"
     id="path2"
     inkscape:connector-curvature="0"
     sodipodi:nodetypes="cccssccccsssscsssccccscccccsccccsssssssscsccccssssc" />
</svg>
